#!OML:ASF F:\VICON\USERDATA\INSTALL\rory3\rory3.ASF
:FULLY-SPECIFIED
:DEGREES
1893
root -1.28548 14.6719 20.9905 561.101 -38.3522 120.743
lowerback -21.9045 -10.7482 1.94205
upperback -17.1825 -16.1051 2.55547
thorax -7.04204 -8.88203 -0.614355
lowerneck 3.62518 -23.59 -18.9136
upperneck -8.97432 -30.3293 34.0445
head 5.50328 -15.4981 10.2355
rclavicle -6.36111e-015 1.145e-013
rhumerus -12.7785 -43.3856 22.8407
rradius 37.513
rwrist -11.2131
rhand -18.8178 -51.6567
rfingers 7.12502
rthumb -172.519 458.496
lclavicle -6.36111e-015 1.145e-013
lhumerus -5.71663 12.9004 8.55595
lradius 24.6979
lwrist 38.7101
lhand -31.0758 -12.9862
lfingers 7.12502
lthumb -4.35638 16.949
rfemur -36.1802 -4.69699 33.6138
rtibia 54.8054
rfoot -1.69113 -22.5922
rtoes 31.4118
lfemur 8.71981 26.5295 -6.82493
ltibia 84.5668
lfoot 12.4467 -3.40464
ltoes 3.67672
1894
root -1.32438 14.6744 21.0828 563.122 -37.0354 120.671
lowerback -22.2503 -9.45383 2.84124
upperback -17.4133 -14.7654 2.29052
thorax -7.40008 -8.39868 -1.14128
lowerneck 2.04567 -24.2681 -17.6214
upperneck -8.77563 -31.0457 33.5379
head 5.65288 -15.7098 9.55909
rclavicle -6.36111e-015 -9.54166e-014
rhumerus -14.4121 -44.0147 24.073
rradius 37.5152
rwrist -10.6588
rhand -18.5663 -51.6794
rfingers 7.12502
rthumb -172.276 458.482
lclavicle -6.36111e-015 -9.54166e-014
lhumerus -4.28213 14.0067 9.20844
lradius 24.3835
lwrist 38.0033
lhand -31.5901 -13.205
lfingers 7.12502
lthumb -4.8529 16.7195
rfemur -38.0321 -3.31597 33.4024
rtibia 54.9526
rfoot -0.678789 -21.9604
rtoes 29.4671
lfemur 7.0152 28.4801 -8.29104
ltibia 84.9196
lfoot 12.2583 -2.68184
ltoes 4.25276
1895
root -1.34744 14.6645 21.1183 564.1 -37.2484 119.765
lowerback -21.9412 -9.55442 2.56602
upperback -17.7732 -14.9021 2.27184
thorax -7.93168 -8.46818 -0.914036
lowerneck 2.82498 -24.0391 -18.133
upperneck -8.5901 -30.8617 33.529
head 5.6248 -15.6638 9.7514
rclavicle 1.51076e-013 -2.95792e-013
rhumerus -13.6965 -43.4815 23.3599
rradius 37.5957
rwrist -10.867
rhand -18.4457 -51.4955
rfingers 7.12502
rthumb -172.16 458.67
lclavicle 1.51076e-013 -2.95792e-013
lhumerus -4.85238 13.0764 8.86857
lradius 24.4933
lwrist 38.1926
lhand -31.6363 -13.5052
lfingers 7.12502
lthumb -4.89752 16.4182
rfemur -37.9413 -3.19671 33.1337
rtibia 55.0108
rfoot -0.623475 -22.2281
rtoes 29.1597
lfemur 7.0704 28.4434 -8.56798
ltibia 84.926
lfoot 12.2917 -2.79347
ltoes 3.76599
1896
root -1.37205 14.6727 21.1411 564.756 -37.6942 119.299
lowerback -21.9107 -9.60984 2.64701
upperback -17.6934 -14.9326 2.33715
thorax -7.85123 -8.46723 -0.901025
lowerneck 2.78651 -24.05 -18.2302
upperneck -8.78601 -30.8525 33.6775
head 5.62047 -15.6785 9.80186
rclavicle 4.29375e-014 9.54166e-015
rhumerus -13.6173 -43.4237 23.306
rradius 37.6548
rwrist -11.2788
rhand -18.5064 -51.3394
rfingers 7.12502
rthumb -172.218 458.824
lclavicle 4.29375e-014 9.54166e-015
lhumerus -4.95419 12.914 8.84304
lradius 24.4983
lwrist 38.3731
lhand -30.9656 -13.7305
lfingers 7.12502
lthumb -4.24994 16.2069
rfemur -37.6991 -3.19814 33.2359
rtibia 55.066
rfoot -0.791415 -22.2939
rtoes 30.1205
lfemur 7.35493 28.4102 -8.18475
ltibia 84.881
lfoot 12.2563 -3.16176
ltoes 2.4166
1897
root -1.39016 14.6887 21.1678 565.598 -37.9808 118.816
lowerback -21.9203 -9.58178 2.68057
upperback -17.6033 -14.8591 2.38501
thorax -7.72537 -8.41617 -0.880161
lowerneck 2.55141 -24.1544 -17.8957
upperneck -9.05322 -30.9096 33.5795
head 5.51294 -15.7234 9.70428
rclavicle 6.20208e-014 2.03555e-013
rhumerus -13.8217 -43.5414 23.5971
rradius 37.6313
rwrist -11.5755
rhand -18.5894 -51.5402
rfingers 7.12502
rthumb -172.298 458.62
lclavicle 6.20208e-014 2.03555e-013
lhumerus -4.78976 13.1722 8.95651
lradius 24.4246
lwrist 38.3346
lhand -30.5393 -13.768
lfingers 7.12502
lthumb -3.8383 16.1771
rfemur -37.8183 -3.05496 33.2199
rtibia 55.0969
rfoot -0.883073 -22.196
rtoes 29.6833
lfemur 7.40701 28.5692 -8.02639
ltibia 84.8041
lfoot 12.2958 -3.17449
ltoes 2.44844
1898
root -1.41293 14.698 21.2082 566.514 -38.3038 118.328
lowerback -21.872 -9.58262 2.82314
upperback -17.7279 -14.8847 2.4673
thorax -7.91378 -8.44223 -0.833583
lowerneck 2.62702 -24.0864 -17.9003
upperneck -8.88881 -30.8594 33.3945
head 5.49706 -15.6952 9.67466
rclavicle 6.83819e-014 1.27222e-014
rhumerus -13.6989 -43.0706 23.6369
rradius 37.6395
rwrist -12.1585
rhand -18.7284 -51.6352
rfingers 7.12502
rthumb -172.433 458.52
lclavicle 6.83819e-014 1.27222e-014
lhumerus -5.01343 12.8872 8.88658
lradius 24.5259
lwrist 38.4916
lhand -30.7793 -13.6108
lfingers 7.12502
lthumb -4.07005 16.3301
rfemur -38.0606 -3.04795 33.266
rtibia 55.1329
rfoot -1.01764 -22.1657
rtoes 29.7558
lfemur 7.26178 28.6004 -8.05202
ltibia 84.8425
lfoot 12.339 -2.61826
ltoes 4.79442
1899
root -1.45209 14.6787 21.2628 567.293 -38.6629 117.842
lowerback -21.8842 -9.66239 2.92087
upperback -17.7529 -14.9759 2.57048
thorax -7.93744 -8.48266 -0.785293
lowerneck 2.7017 -23.9554 -18.1326
upperneck -8.74771 -30.7346 33.4732
head 5.55543 -15.6286 9.75902
rclavicle 2.8625e-014 6.36111e-015
rhumerus -13.4199 -42.9342 23.4299
rradius 37.6209
rwrist -12.1962
rhand -18.6471 -51.5644
rfingers 7.12502
rthumb -172.354 458.594
lclavicle 2.8625e-014 6.36111e-015
lhumerus -5.32365 12.7159 8.77977
lradius 24.6418
lwrist 38.7283
lhand -30.953 -13.633
lfingers 7.12502
lthumb -4.23771 16.3046
rfemur -37.9392 -3.19639 33.5067
rtibia 55.1913
rfoot -0.958956 -22.1464
rtoes 30.5069
lfemur 7.26805 28.5408 -7.9094
ltibia 84.9837
lfoot 12.2742 -2.37644
ltoes 6.36565
1900
root -1.50451 14.6406 21.3267 568.177 -38.938 117.271
lowerback -22.0789 -9.73481 2.89882
upperback -17.5817 -15.0001 2.70086
thorax -7.5889 -8.45964 -0.722735
lowerneck 2.27228 -23.9894 -18.1371
upperneck -8.86702 -30.7496 33.5564
head 5.61193 -15.6196 9.72421
rclavicle 3.02153e-014 3.18055e-015
rhumerus -13.2554 -43.855 23.3085
rradius 37.5355
rwrist -11.5859
rhand -18.4138 -51.5797
rfingers 7.12502
rthumb -172.129 458.587
lclavicle 3.02153e-014 3.18055e-015
lhumerus -5.37938 13.3012 8.86173
lradius 24.5762
lwrist 38.6646
lhand -30.9215 -13.7909
lfingers 7.12502
lthumb -4.20733 16.1473
rfemur -37.6762 -3.3584 33.7939
rtibia 55.208
rfoot -0.103336 -22.0083
rtoes 27.71
lfemur 7.19519 28.5863 -7.87073
ltibia 85.2506
lfoot 12.0254 -2.84426
ltoes 4.60312
